ply
format ascii 1.0
comment VCGLIB generated
element vertex 967
property float x
property float y
property float z
element face 999
property list uchar int vertex_indices
end_header
-0.00462912 0.001549104 -0.0002878288 
-0.004693698 0.001471911 -0.0002897657 
-0.004568598 0.00139481 -0.0003259073 
-0.004475733 0.001408889 -0.0003427161 
-0.004380281 0.001532591 -0.0003435992 
-0.004456579 0.001668462 -0.0003081651 
-0.004540425 0.001700961 -0.0002860211 
-0.004678571 0.001643424 -0.0002674015 
-0.004629121 0.001549098 0.0002878295 
-0.004693701 0.001471913 0.0002897648 
-0.004568598 0.00139481 0.0003259073 
-0.004475763 0.001408888 0.0003427106 
-0.004380282 0.001532599 0.0003435974 
-0.004456572 0.001668456 0.0003081675 
-0.004540433 0.001700961 0.0002860197 
-0.00467857 0.001643425 0.0002674014 
0.004615351 0.0003349085 -1.463227e-06 
0.005004397 0.0002202432 -2.54006e-06 
0.005030091 0.0002316642 -2.540059e-06 
0.005055747 0.000245919 -1.974498e-06 
0.005088616 0.0003321996 3.020959e-05 
0.005084013 0.0002853564 -2.540057e-06 
0.005091453 0.0003572898 -2.540055e-06 
0.005096414 0.0004267428 -2.540053e-06 
0.005096414 0.0004515478 -2.540052e-06 
0.005093934 0.0004019381 -2.540053e-06 
0.005098895 0.0004763523 -2.540051e-06 
0.005082947 0.0006040789 0.0002390704 
0.005096414 0.0005383641 -2.540049e-06 
0.005084012 0.0006475144 -2.544738e-06 
0.00507482 0.0007942773 -2.464415e-05 
0.005022787 0.0009695511 0.0002019118 
0.005056726 0.0009079539 -2.540036e-06 
0.005014597 0.001022127 -3.604803e-06 
0.004977351 0.001170883 -2.540027e-06 
0.004987269 0.001136156 -2.440705e-06 
0.004962467 0.001245315 -2.553541e-06 
0.004952548 0.001307309 -2.540022e-06 
0.004947587 0.001339555 -2.540021e-06 
0.004957509 0.001277544 -2.540024e-06 
0.004942627 0.001369321 -2.54002e-06 
0.00511621 0.002470686 2.752334e-07 
0.004987543 0.001675961 -0.0002212886 
0.005034402 0.001855493 -2.540004e-06 
0.005018566 0.001781274 -0.0001519046 
0.005046804 0.001890219 -2.540002e-06 
0.005069129 0.002041528 -2.539997e-06 
0.005071882 0.001981415 -0.0001935947 
0.005074089 0.002078735 -2.539996e-06 
0.00508009 0.002229254 0.0003441309 
0.005081532 0.002153149 -2.539994e-06 
0.005093934 0.002259809 -2.53999e-06 
0.005108817 0.002401196 -2.539985e-06 
0.005095149 0.002334372 0.0002493613 
0.005111298 0.002435923 -2.539984e-06 
0.005118737 0.002554985 -2.53998e-06 
0.005122016 0.002494302 -0.000330816 
0.005121219 0.00258227 -2.539979e-06 
0.005113778 0.00267652 -2.390125e-06 
0.0051113 0.002701333 -3.369929e-06 
0.004627606 0.00263684 -2.539977e-06 
0.005041514 0.002752742 -2.539973e-06 
0.005081486 0.002735611 -2.539974e-06 
0.004970135 0.0002116781 -2.54006e-06 
0.004921598 0.0002173883 -2.54006e-06 
0.004111952 0.000687023 -1.869544e-06 
0.003347685 0.001314751 -8.459375e-06 
0.00326831 0.001215532 -2.540026e-06 
0.005093934 0.0003796143 -2.540054e-06 
0.00374468 0.0009774114 -1.332108e-06 
0.00342706 0.001356919 -1.663067e-05 
0.005098895 0.0005011571 -2.54005e-06 
0.003494032 0.001386685 -2.423563e-05 
0.0035512 0.001416831 -2.730172e-05 
0.00506913 0.0008682646 -2.536728e-06 
0.00359567 0.001448485 -3.884843e-05 
0.005002157 0.001061743 -2.540031e-06 
0.003627976 0.001480942 -4.121109e-05 
0.0036503 0.001510708 -4.428006e-05 
0.004937688 0.001401577 -2.917118e-06 
0.003660224 0.001542954 -4.584112e-05 
0.004937663 0.00158264 -2.540032e-06 
0.005002157 0.001753794 -2.540007e-06 
0.003645339 0.001612407 -4.428006e-05 
0.005056726 0.001924946 -2.540001e-06 
0.003657764 0.00157797 -5.047242e-05 
0.003620385 0.001647826 -4.635081e-05 
0.00507905 0.002118423 -2.539995e-06 
0.003583328 0.00168186 -3.673872e-05 
0.005096414 0.002294536 -2.539989e-06 
0.003536201 0.001719067 -3.101526e-05 
0.003476973 0.001753752 -2.546051e-05 
0.005121219 0.002609555 -2.539978e-06 
0.003407215 0.001791001 -1.663067e-05 
0.005101471 0.002715625 -2.539974e-06 
0.00496157 0.002755597 -2.539973e-06 
0.004998687 0.002755597 -2.539973e-06 
0.004925263 0.002750942 -2.539973e-06 
0.004123864 0.00228694 -1.638782e-06 
0.003655259 0.002029123 -2.516722e-06 
0.003189298 0.001920522 -0.0003151062 
0.004615203 0.0003349654 2.539944e-06 
0.005004397 0.0002202432 2.53994e-06 
0.005030091 0.0002316642 2.539941e-06 
0.005055788 0.0002459396 2.539941e-06 
0.005084096 0.0002853585 3.786614e-05 
0.005088974 0.0003324854 2.539944e-06 
0.005091453 0.0003572898 2.539945e-06 
0.005096446 0.0004268855 4.374855e-06 
0.005096414 0.0004515478 2.539948e-06 
0.005093934 0.0004019381 2.539947e-06 
0.005098895 0.0004763523 2.539949e-06 
0.005082945 0.0006040939 -0.0002390706 
0.005096414 0.0005383641 2.539951e-06 
0.005082224 0.0006459584 -6.794296e-05 
0.005074096 0.0007937599 2.541266e-06 
0.005022789 0.0009695454 -0.0002019115 
0.00505682 0.0009081042 5.909518e-06 
0.00501456 0.001022055 2.539968e-06 
0.004990866 0.00118754 0.0002721332 
0.005002154 0.001061756 2.558319e-06 
0.004952548 0.001307309 2.539977e-06 
0.005002414 0.001753557 8.214104e-06 
0.004947587 0.001339555 2.539979e-06 
0.004957509 0.001277544 2.539976e-06 
0.004942627 0.001369321 2.53998e-06 
0.004987541 0.001675959 0.0002212778 
0.005018567 0.001781282 0.0001518754 
0.005034402 0.001855493 2.539996e-06 
0.005046804 0.001890219 2.539997e-06 
0.00506665 0.00200184 2.540001e-06 
0.005069129 0.002041528 2.540002e-06 
0.005061689 0.001964633 2.54e-06 
0.005074089 0.002078735 2.540004e-06 
0.005086492 0.002187876 2.540007e-06 
0.005088974 0.002225083 2.540009e-06 
0.005081532 0.002153149 2.540006e-06 
0.005093934 0.002259809 2.54001e-06 
0.005095148 0.002334373 -0.0002494165 
0.005108817 0.002401196 2.540015e-06 
0.005111298 0.002435923 2.540016e-06 
0.005118737 0.002554985 2.54002e-06 
0.005116259 0.002497934 2.540018e-06 
0.005121219 0.00258227 2.540021e-06 
0.005113774 0.002676541 2.151102e-06 
0.005118737 0.002631879 2.540023e-06 
0.005111298 0.002701333 2.540025e-06 
0.005041514 0.002752742 2.540027e-06 
0.004627606 0.00263684 2.540023e-06 
0.005081486 0.002735611 2.540026e-06 
0.004921598 0.0002173883 2.53994e-06 
0.004970135 0.0002116781 2.53994e-06 
0.004111952 0.000687023 1.869455e-06 
0.00374468 0.0009774114 1.332035e-06 
0.003347685 0.001314751 8.459331e-06 
0.00326831 0.001215532 2.539974e-06 
0.005093934 0.0003796143 2.539946e-06 
0.003478803 0.001402218 -0.0002516471 
0.005098895 0.0005011571 2.53995e-06 
0.003551115 0.001416557 2.996557e-05 
0.005069129 0.0008682664 2.539962e-06 
0.003627994 0.00148103 4.023887e-05 
0.00359573 0.001448696 3.673869e-05 
0.004962468 0.001245311 2.552006e-06 
0.00365776 0.001577912 4.955499e-05 
0.0036503 0.001510708 4.428003e-05 
0.004937663 0.001401569 2.53997e-06 
0.003660224 0.001542954 4.584109e-05 
0.004937687 0.001582631 2.901538e-06 
0.003645281 0.001612917 4.885422e-05 
0.005056726 0.001924946 2.539999e-06 
0.003620536 0.001647134 4.121108e-05 
0.00507905 0.002118423 2.540005e-06 
0.003583326 0.001681651 3.476766e-05 
0.005096414 0.002294536 2.540011e-06 
0.003528944 0.001746395 0.0002320465 
0.005116259 0.002470649 2.540017e-06 
0.005121219 0.002609555 2.540022e-06 
0.003407268 0.001791036 1.725506e-05 
0.005101471 0.002715625 2.540026e-06 
0.005118786 0.002524771 7.366253e-06 
0.003325568 0.001828067 7.99096e-06 
0.00496157 0.002755597 2.540027e-06 
0.004925263 0.002750942 2.540027e-06 
0.004998687 0.002755597 2.540027e-06 
0.004124071 0.002287094 2.540011e-06 
0.003655263 0.002029126 2.540002e-06 
0.003206298 0.001897661 2.539998e-06 
0.002238914 8.195813e-05 -2.540043e-06 
0.002439603 2.339308e-06 -2.540046e-06 
0.002460658 9.357813e-06 -2.540046e-06 
0.002477034 1.637591e-05 -2.540045e-06 
0.002514246 8.195813e-05 -2.540043e-06 
0.002502052 4.466511e-05 -0.0001416972 
0.002519208 9.932136e-05 -2.540043e-06 
0.002533029 0.0001853421 0.0002181005 
0.00253161 0.0001414894 -2.540041e-06 
0.002541532 0.000213423 -2.540039e-06 
0.00256693 0.000312316 -0.0002119513 
0.002578739 0.000404419 -2.540032e-06 
0.00258618 0.0004292236 -2.540031e-06 
0.002573778 0.0003796144 -2.540033e-06 
0.002608504 0.0005309229 -2.540028e-06 
0.002613464 0.0005582081 -2.540027e-06 
0.002601064 0.0005061181 -2.540029e-06 
0.002620907 0.0005830127 -2.540026e-06 
0.002645712 0.0006896729 -2.540022e-06 
0.002622896 0.0006385343 0.0002910687 
0.002677958 0.0008285791 -2.540018e-06 
0.002667904 0.0007710319 -9.727674e-05 
0.0026854 0.0008583446 -2.540017e-06 
0.002566895 0.001046596 5.877377e-06 
0.002698327 0.0009153013 -0.000134457 
0.002423226 -5.820766e-11 -2.540046e-06 
0.002400145 2.58314e-06 -2.540046e-06 
0.002491071 3.041321e-05 -2.540045e-06 
0.002008284 0.0002927676 -2.024234e-06 
0.001802378 0.0005309211 -2.058244e-06 
0.001630177 0.0008055264 0.0001774221 
0.002526649 0.0001191651 -2.540042e-06 
0.001817235 0.0008558644 -1.262777e-05 
0.002546493 0.0002357471 -2.540038e-06 
0.002568929 0.0003573079 -5.745883e-06 
0.001911242 0.0008830402 -1.894545e-05 
0.002596103 0.0004788425 -2.540356e-06 
0.002000247 0.0009127239 -2.009763e-05 
0.002625867 0.0006102979 -2.540025e-06 
0.002174423 0.0009724462 -1.701335e-05 
0.002650675 0.0007169669 -2.560255e-06 
0.002255549 0.001001985 -1.49718e-05 
0.00269284 0.0008856297 -2.540016e-06 
0.002333467 0.001034616 -7.694587e-06 
0.002696946 0.0009825854 -2.540012e-06 
0.002701625 0.00096153 -2.540013e-06 
0.002671211 0.001003641 -2.540012e-06 
0.002408212 0.001059253 9.377278e-05 
0.002238914 8.195813e-05 2.539957e-06 
0.002439603 2.339308e-06 2.539954e-06 
0.002460658 9.357813e-06 2.539954e-06 
0.002477034 1.637591e-05 2.539954e-06 
0.002502052 4.46656e-05 0.0001417148 
0.002514246 8.195813e-05 2.539957e-06 
0.002519208 9.932136e-05 2.539957e-06 
0.002534095 0.0001662055 3.575733e-06 
0.002539051 0.0001886181 2.53996e-06 
0.00253161 0.0001414894 2.539959e-06 
0.002541532 0.000213423 2.539961e-06 
0.002566916 0.0003122783 0.000211683 
0.002563072 0.0004203882 -0.000555398 
0.002573778 0.0003796144 2.539967e-06 
0.002608504 0.0005309229 2.539972e-06 
0.001999936 0.0009126165 2.039114e-05 
0.002613464 0.0005582081 2.539973e-06 
0.002601064 0.0005061181 2.539971e-06 
0.002620907 0.0005830127 2.539974e-06 
0.002622894 0.0006385291 -0.0002911035 
0.002645712 0.0006896729 2.539977e-06 
0.002667904 0.0007710319 9.727669e-05 
0.002677958 0.0008285791 2.539982e-06 
0.0026854 0.0008583446 2.539983e-06 
0.002698328 0.0009153044 0.000134442 
0.002400145 2.58314e-06 2.539954e-06 
0.002423226 -5.820766e-11 2.539954e-06 
0.002491071 3.041321e-05 2.539955e-06 
0.002008284 0.0002927676 2.024162e-06 
0.001802378 0.0005309218 2.058189e-06 
0.001630177 0.0008055266 -0.0001774261 
0.002526649 0.0001191651 2.539958e-06 
0.001911241 0.0008830398 1.894539e-05 
0.001817235 0.0008558644 1.262774e-05 
0.002546493 0.0002357471 2.539962e-06 
0.002568816 0.0003572867 2.540028e-06 
0.0025961 0.0004788293 2.540354e-06 
0.002625867 0.0006102979 2.539975e-06 
0.002173893 0.0009722674 1.786798e-05 
0.002650675 0.0007169669 2.56026e-06 
0.002296197 0.001014644 -0.000115955 
0.00269284 0.0008856297 2.539984e-06 
0.002701625 0.00096153 2.539987e-06 
0.002696946 0.0009825854 2.539987e-06 
0.002671211 0.001003641 2.539988e-06 
0.002566892 0.001046596 -5.848013e-06 
0.002486961 0.001054302 2.53999e-06 
0.002410084 0.00106427 3.44594e-06 
-0.0002527692 8.138712e-05 -0.0008694802 
-6.714926e-05 3.436109e-05 -0.0009775828 
-4.837278e-05 3.990059e-05 -0.0009774206 
-8.930234e-05 3.020646e-05 -0.000975208 
-3.107413e-05 4.682486e-05 -0.0009753089 
-0.0003778807 0.0002540333 -0.0006442799 
-0.0001023806 0.0004275764 -0.001272601 
-1.210638e-05 6.237725e-05 -0.0009644146 
5.260081e-06 8.829974e-05 -0.000941848 
0.0001361908 -0.0001637148 -0.0005951127 
7.734785e-05 0.0002161834 -0.0008263172 
8.681969e-05 0.0002317369 -0.0008124843 
6.971971e-05 0.000198902 -0.0008425832 
9.444787e-05 0.0002490188 -0.0007962182 
0.000120494 0.0002956791 -0.0007539857 
0.0001299659 0.0003112322 -0.0007401529 
0.0001370683 0.0003267857 -0.0007255868 
9.788604e-05 0.0006258851 -0.0008954573 
0.0001531165 0.0003561643 -0.0006988876 
0.0002665233 0.0001752903 -0.0003981685 
0.0002067864 0.0004546695 -0.0006093231 
0.0002157326 0.0004684948 -0.0005971898 
0.0002217112 0.0005093784 -0.0005549759 
8.877402e-05 0.0005808253 -0.00043685 
0.0002159718 0.0005237959 -0.0005376615 
0.000222773 0.0004941446 -0.0005717229 
0.0002130695 0.0005376211 -0.0005218633 
-0.0001274956 3.574591e-05 -0.0009574232 
-1.9475e-05 5.373644e-05 -0.0009714478 
-0.000489543 0.0006265328 -0.000202094 
-0.0004659301 0.0004322035 -0.0004254407 
-0.0005029903 0.0006191437 -0.0002095038 
-0.0005155086 0.0006119321 -0.0002163972 
1.262867e-05 9.694033e-05 -0.0009348143 
-0.0004775401 0.0006287673 -0.000194449 
6.024971e-05 0.0001833479 -0.0008564122 
0.0001133918 0.0002801245 -0.0007685517 
-0.00046807 0.0006381551 -0.0001889561 
0.0001465402 0.0003423392 -0.0007117536 
0.0001786366 0.0004010983 -0.0006583562 
-0.000425449 0.0006704796 -0.0001768723 
-0.00044507 0.0006549233 -0.0001834408 
0.0002223089 0.0004823201 -0.0005843236 
-7.896166e-05 0.0006136546 -0.0003495676 
-0.0004348159 0.0006640758 -0.0001821659 
0.0001929968 0.0005523099 -0.0004998231 
-0.0002538151 8.503126e-05 -0.0008728615 
-6.819519e-05 3.800524e-05 -0.0009809639 
-4.941877e-05 4.354469e-05 -0.000980802 
-9.034807e-05 3.385049e-05 -0.0009785891 
-3.211986e-05 5.046924e-05 -0.0009786902 
9.624135e-05 -0.0002644963 -0.0006305039 
-1.315237e-05 6.60214e-05 -0.0009677955 
4.214118e-06 9.194395e-05 -0.000945229 
-4.53684e-05 0.0004688151 -0.001182021 
7.630186e-05 0.0002198276 -0.0008296985 
8.577376e-05 0.000235381 -0.0008158655 
6.867398e-05 0.0002025462 -0.0008459645 
9.340188e-05 0.0002526629 -0.0007995993 
-0.000472913 0.0006550279 -0.0002046115 
0.0001194481 0.0002993232 -0.000757367 
0.00012892 0.0003148764 -0.0007435342 
0.0001360223 0.0003304298 -0.0007289677 
0.0002350925 0.0001479159 -0.0004519321 
0.0001520705 0.0003598085 -0.0007022686 
0.0001775909 0.0004047408 -0.000661736 
0.0002057404 0.0004583137 -0.0006127043 
0.0002146866 0.000472139 -0.000600571 
8.772803e-05 0.0005844694 -0.0004402311 
0.0002206653 0.0005130225 -0.0005583572 
0.0002149259 0.0005274401 -0.0005410428 
0.000221727 0.0004977888 -0.0005751041 
0.0002120234 0.0005412652 -0.0005252445 
-0.0001285413 3.939e-05 -0.0009608045 
-2.052094e-05 5.738082e-05 -0.000974829 
-0.000379043 0.0002580834 -0.0006480377 
-0.000466976 0.0004358477 -0.0004288219 
-0.0005048566 0.0006256463 -0.0002155371 
-0.0005165546 0.0006155763 -0.0002197784 
1.158256e-05 0.0001005843 -0.0009381956 
-0.0004923977 0.0006364787 -0.0002113222 
5.920397e-05 0.0001869977 -0.0008597949 
0.0001123455 0.00028377 -0.000771934 
-0.0004828477 0.0006472593 -0.0002116068 
0.0001454942 0.0003459833 -0.0007151349 
0.0001200072 0.0006856922 -0.0008717838 
-0.0004484277 0.0006665966 -0.0001942772 
0.0002212629 0.0004859643 -0.0005877049 
-0.0004366822 0.0006705783 -0.0001881993 
0.0001919509 0.0005559539 -0.0005032043 
-8.001095e-05 0.0006173091 -0.0003529582 
-0.0004276687 0.0006782134 -0.0001840479 
-0.0002527692 8.138712e-05 0.0008694802 
-6.714926e-05 3.436109e-05 0.0009775828 
-4.837278e-05 3.990059e-05 0.0009774206 
-8.930234e-05 3.020646e-05 0.000975208 
-3.107413e-05 4.682486e-05 0.0009753089 
-0.0001023698 0.0004275352 0.001272565 
-1.210638e-05 6.237725e-05 0.0009644146 
5.260081e-06 8.829974e-05 0.000941848 
0.0001361827 -0.0001636879 0.0005951376 
7.734785e-05 0.0002161834 0.0008263172 
8.681969e-05 0.0002317368 0.0008124843 
6.971971e-05 0.000198902 0.0008425832 
9.444787e-05 0.0002490187 0.0007962182 
-0.00046807 0.0006381552 0.0001889561 
0.000120494 0.000295679 0.0007539857 
0.0001299659 0.0003112322 0.0007401529 
0.0001370683 0.0003267856 0.0007255868 
9.788952e-05 0.0006258772 0.0008954479 
0.0001531165 0.0003561643 0.0006988876 
0.0002067864 0.0004546695 0.0006093231 
0.0002665202 0.000175297 0.0003981768 
0.0002157326 0.0004684948 0.0005971898 
8.877402e-05 0.0005808253 0.00043685 
0.0002217112 0.0005093784 0.0005549759 
0.0002159718 0.0005237959 0.0005376615 
0.000222773 0.0004941445 0.0005717229 
0.0002130695 0.0005376211 0.0005218633 
-0.0001274956 3.574591e-05 0.0009574232 
-1.9475e-05 5.373644e-05 0.0009714478 
-0.0003778807 0.0002540335 0.0006442797 
-0.0004659301 0.0004322035 0.0004254407 
-0.0005029903 0.0006191437 0.0002095038 
-0.0005155086 0.0006119321 0.0002163972 
1.262864e-05 9.69404e-05 0.0009348145 
-0.0004895437 0.0006265324 0.0002020943 
6.024971e-05 0.0001833479 0.0008564122 
0.0001133918 0.0002801243 0.0007685517 
-0.0004775402 0.0006287672 0.0001944491 
0.0001465402 0.0003423391 0.0007117536 
0.0001786367 0.0004010973 0.0006583558 
-0.0004450762 0.0006549181 0.0001834419 
0.0002223089 0.00048232 0.0005843236 
-0.0004348159 0.0006640758 0.0001821659 
0.0001929968 0.0005523099 0.0004998231 
-7.896178e-05 0.000613654 0.0003495668 
-0.000425449 0.0006704796 0.0001768723 
-0.0002538151 8.503126e-05 0.0008728615 
-6.819519e-05 3.800524e-05 0.0009809639 
-4.941877e-05 4.354469e-05 0.000980802 
-9.034807e-05 3.385049e-05 0.0009785891 
-3.211986e-05 5.046924e-05 0.0009786902 
9.624747e-05 -0.0002645172 0.0006304843 
-1.315237e-05 6.60214e-05 0.0009677955 
4.214118e-06 9.194395e-05 0.000945229 
-4.554531e-05 0.0004694068 0.001182614 
7.630186e-05 0.0002198275 0.0008296985 
8.577376e-05 0.0002353809 0.0008158655 
6.867398e-05 0.0002025461 0.0008459645 
0.0001194481 0.0002993231 0.000757367 
0.00012892 0.0003148764 0.0007435342 
0.0001123457 0.0002837694 0.0007719331 
0.0001360223 0.0003304298 0.0007289677 
0.0002350909 0.0001479103 0.0004519334 
0.0001520705 0.0003598085 0.0007022686 
0.0001996932 0.0004462067 0.0006238603 
0.0002057404 0.0004583137 0.0006127043 
0.0001907439 0.0004323913 0.0006360037 
0.0002146866 0.000472139 0.000600571 
0.0002206653 0.0005130225 0.0005583572 
8.772803e-05 0.0005844694 0.0004402311 
0.0002149259 0.0005274401 0.0005410428 
0.000221727 0.0004977887 0.0005751041 
0.0002120234 0.0005412652 0.0005252445 
-0.0001285413 3.939e-05 0.0009608045 
-2.052094e-05 5.738082e-05 0.000974829 
-0.000379043 0.0002580834 0.0006480377 
-0.0004923973 0.0006364789 0.000211322 
-0.000466976 0.0004358477 0.0004288219 
-0.0005048566 0.0006256463 0.0002155371 
-0.0005165546 0.0006155763 0.0002197784 
1.158266e-05 0.0001005848 0.0009381956 
-0.000473273 0.0006560058 0.0002055756 
-0.0004824084 0.0006454828 0.0002101015 
5.920343e-05 0.0001869967 0.0008597957 
9.34019e-05 0.0002526617 0.000799599 
0.0001454942 0.0003459832 0.0007151349 
0.0001775914 0.0004047406 0.0006617349 
-0.0004485569 0.0006665563 0.000194346 
0.0002212629 0.0004859642 0.0005877049 
-8.001026e-05 0.0006173084 0.000352958 
-0.0004366822 0.0006705784 0.0001881993 
0.0001919509 0.0005559539 0.0005032043 
-0.0004270595 0.0006760619 0.0001822725 
0.00274741 0.002108501 -2.540012e-06 
0.002708149 0.002179388 -0.00029959 
0.002744929 0.002036567 -2.540015e-06 
0.002697799 0.001979517 -2.540016e-06 
0.002566459 0.002006011 -7.452429e-07 
0.002601063 0.002220122 -2.540008e-06 
0.002255781 0.002051555 -9.883745e-06 
0.002355496 0.002148188 -2.540011e-06 
0.002509285 0.002217642 -2.540008e-06 
0.002082644 0.002071294 -2.540013e-06 
0.00274741 0.002108501 2.539988e-06 
0.002744929 0.002036567 2.539985e-06 
0.002566459 0.002006011 7.452429e-07 
0.002697799 0.001979517 2.539984e-06 
0.002708149 0.002179388 0.0002995899 
0.002601063 0.002220122 2.539992e-06 
0.00225578 0.002051555 9.883697e-06 
0.002509285 0.002217642 2.539992e-06 
0.002355496 0.002148188 2.539989e-06 
0.002082644 0.002071294 2.539987e-06 
-0.002847811 0.0007720584 -0.0007760794 
-0.00265923 0.0007532475 -0.0009263761 
-0.002978561 0.0007981794 -0.0006876437 
-0.002649901 0.000761477 -0.0009444723 
-0.002678803 0.0007499348 -0.0009046476 
-0.002638261 0.0007672482 -0.0009618179 
-0.00262861 0.0007983938 -0.001006881 
-0.002626734 0.0008077992 -0.001019541 
-0.002629396 0.0007871072 -0.0009930271 
-0.002625949 0.0008190856 -0.001033396 
-0.002554658 0.0009447309 -0.001007391 
-0.002624029 0.0008378967 -0.001057043 
-0.002622413 0.0008698751 -0.00109574 
-0.002764405 0.0007134523 -0.001272233 
-0.002624418 0.0009112593 -0.001142078 
-0.002624373 0.0009206647 -0.001153066 
-0.002629343 0.0009545243 -0.001187938 
-0.002629299 0.0009639299 -0.001198926 
-0.002632177 0.0009752163 -0.001209434 
-0.002638979 0.001009076 -0.001242634 
-0.002640025 0.001020363 -0.001254816 
-0.002633229 0.0009864962 -0.001221622 
-0.002651509 0.001065546 -0.001296824 
-0.002656249 0.001076792 -0.001305692 
-0.002669589 0.001121942 -0.001346053 
-0.002675389 0.001135109 -0.001356083 
-0.002666711 0.001110655 -0.001335543 
-0.002452482 0.001426527 -0.001125004 
-0.002698194 0.001193432 -0.001403133 
-0.002719956 0.001240451 -0.001438 
-0.002724665 0.001251737 -0.001446836 
-0.002712321 0.001227287 -0.001429639 
-0.002732297 0.001264905 -0.001455194 
-0.00275118 0.001300646 -0.001479553 
-0.002756979 0.001313813 -0.001489583 
-0.002801114 0.001355197 -0.001497453 
-0.002816465 0.001362722 -0.001492194 
-0.002786504 0.001345792 -0.001499846 
-0.002831075 0.001372127 -0.001489801 
-0.002873858 0.001389057 -0.001470441 
-0.003022148 0.00132886 -0.001264974 
-0.00289009 0.001392455 -0.001459576 
-0.002859597 0.001383413 -0.001476894 
-0.002911052 0.001396302 -0.001444913 
-0.002706545 0.0007460874 -0.0008748385 
-0.002631272 0.0007777017 -0.0009803668 
-0.00328004 0.0008748838 -0.0004990933 
-0.00312632 0.0008322534 -0.0005918379 
-0.003264495 0.0008666791 -0.000504016 
-0.002624073 0.0008284912 -0.001046056 
-0.003299421 0.000886857 -0.0004892271 
-0.002622369 0.0008792806 -0.001106727 
-0.00331881 0.0009002007 -0.0004789979 
-0.002626465 0.0009432388 -0.001177429 
-0.003340179 0.0009115609 -0.0004727462 
-0.003307178 0.0008936385 -0.0004845809 
-0.002662002 0.001099369 -0.001326707 
-0.003376913 0.0009325151 -0.0004644653 
-0.003315359 0.001005899 -0.0004088007 
-0.002737002 0.001276197 -0.001464027 
-0.002763471 0.001325191 -0.001496693 
-0.003406961 0.000976212 -0.0004394056 
-0.002846426 0.001379651 -0.001484542 
-0.003276684 0.00109708 -0.0007640492 
-0.002930543 0.001394379 -0.001424877 
-0.003133234 0.001232926 -0.001051882 
-0.003416298 0.0009470001 -0.0004606199 
-0.002850408 0.0007687471 -0.0007789246 
-0.002661827 0.0007499362 -0.0009292208 
-0.002652499 0.0007581657 -0.0009473172 
-0.002681401 0.0007466235 -0.0009074925 
-0.002640859 0.0007639369 -0.0009646629 
-0.002625098 0.0008467333 -0.001072806 
-0.002631208 0.0007950824 -0.001009726 
-0.002629332 0.0008044878 -0.001022387 
-0.002631993 0.0007837958 -0.0009958722 
-0.002628546 0.0008157743 -0.001036241 
-0.002625797 0.0008552774 -0.00108473 
-0.002626627 0.0008345854 -0.001059888 
-0.002625011 0.0008665639 -0.001098584 
-0.002627015 0.0009079479 -0.001144923 
-0.002487339 0.001066617 -0.0009687777 
-0.003352634 0.0008951352 -0.0004868172 
-0.002631941 0.000951213 -0.001190783 
-0.002631897 0.0009606186 -0.001201771 
-0.002629063 0.0009399266 -0.001180274 
-0.002634775 0.0009719051 -0.001212279 
-0.002641577 0.001005765 -0.001245479 
-0.002642623 0.001017052 -0.001257661 
-0.003363339 0.0009041434 -0.0004836181 
-0.002658839 0.001073489 -0.001308528 
-0.002672187 0.00111863 -0.001348898 
-0.002677987 0.001131798 -0.001358928 
-0.002669309 0.001107344 -0.001338388 
-0.002618359 0.001296931 -0.001313986 
-0.002722665 0.001236999 -0.001440969 
-0.002727263 0.001248426 -0.001449681 
-0.002714922 0.001223972 -0.001432487 
-0.002734894 0.001261593 -0.001458039 
-0.002753777 0.001297334 -0.001482398 
-0.002759577 0.001310502 -0.001492428 
-0.002765813 0.001322206 -0.001499257 
-0.002803711 0.001351886 -0.001500298 
-0.002819063 0.00135941 -0.001495039 
-0.002789101 0.00134248 -0.001502691 
-0.002833672 0.001368816 -0.001492646 
-0.003024744 0.00132555 -0.001267823 
-0.002876456 0.001385745 -0.001473286 
-0.002892687 0.001389144 -0.001462421 
-0.002862195 0.001380102 -0.00147974 
-0.00291365 0.001392991 -0.001447758 
-0.002709143 0.000742776 -0.0008776832 
-0.00263387 0.0007743904 -0.0009832116 
-0.002980843 0.0007952679 -0.000690146 
-0.003128918 0.0008289421 -0.0005946829 
-0.003268081 0.000862108 -0.0005079433 
-0.002626671 0.00082518 -0.001048901 
-0.003283788 0.0008701105 -0.0005031944 
-0.002624967 0.0008759693 -0.001109572 
-0.003306665 0.0008776255 -0.0004971586 
-0.002626972 0.0009173524 -0.001155913 
-0.003317546 0.0008804226 -0.0004959354 
-0.002635821 0.000983191 -0.001224462 
-0.002654139 0.001062191 -0.001299703 
-0.003330668 0.0008850916 -0.0004919798 
-0.002664599 0.001096057 -0.001329552 
-0.002680864 0.001143086 -0.001369437 
-0.003375287 0.0009105201 -0.0004782439 
-0.002739602 0.001272882 -0.001466873 
-0.00337273 0.0009266532 -0.0004656384 
-0.002849024 0.00137634 -0.001487387 
-0.00340788 0.0009357838 -0.0004658088 
-0.002933141 0.001391067 -0.001427722 
-0.003135827 0.001229619 -0.001054736 
-0.003278977 0.001094176 -0.0007663812 
-0.003418896 0.0009436887 -0.0004634649 
-0.002847811 0.0007720584 0.0007760794 
-0.00265923 0.0007532475 0.0009263761 
-0.002649901 0.000761477 0.0009444723 
-0.002678803 0.0007499348 0.0009046476 
-0.002638261 0.0007672482 0.0009618179 
-0.00262861 0.0007983937 0.001006881 
-0.002626734 0.0008077992 0.001019541 
-0.002629396 0.0007871072 0.0009930271 
-0.002625949 0.0008190856 0.001033396 
-0.002554658 0.0009447338 0.001007394 
-0.002624029 0.0008378967 0.001057043 
-0.002622413 0.0008698751 0.00109574 
-0.002624418 0.0009112592 0.001142078 
-0.00276449 0.000713343 0.001272322 
-0.002629343 0.0009545243 0.001187938 
-0.002629299 0.0009639299 0.001198926 
-0.002626466 0.0009432379 0.001177429 
-0.002632177 0.0009752163 0.001209434 
-0.002640026 0.001020364 0.001254819 
-0.002638978 0.001009078 0.001242633 
-0.00267553 0.001134934 0.001356234 
-0.002651506 0.001065549 0.001296821 
-0.002656246 0.001076795 0.001305689 
-0.002669589 0.001121942 0.001346053 
-0.002666711 0.001110655 0.001335543 
-0.00245237 0.001426666 0.001124884 
-0.002698194 0.001193432 0.001403133 
-0.002719956 0.001240451 0.001438 
-0.002724665 0.001251737 0.001446836 
-0.002732297 0.001264905 0.001455194 
-0.00275118 0.001300646 0.001479553 
-0.002756979 0.001313813 0.001489583 
-0.002763577 0.001325055 0.001496809 
-0.002801114 0.001355197 0.001497453 
-0.002816465 0.001362722 0.001492194 
-0.002786504 0.001345792 0.001499846 
-0.002831075 0.001372127 0.001489801 
-0.003022146 0.001328862 0.001264978 
-0.002873858 0.001389057 0.001470441 
-0.00289009 0.001392455 0.001459576 
-0.002859597 0.001383413 0.001476894 
-0.002911052 0.001396302 0.001444913 
-0.002706545 0.0007460873 0.0008748385 
-0.002631272 0.0007777017 0.0009803668 
-0.002978563 0.0007981798 0.0006876424 
-0.00312632 0.0008322534 0.0005918379 
-0.003264495 0.0008666792 0.0005040159 
-0.002624073 0.0008284912 0.001046056 
-0.00328004 0.0008748842 0.000499093 
-0.002622369 0.0008792806 0.001106727 
-0.002624373 0.000920665 0.001153066 
-0.003307183 0.0008874721 0.0004910627 
-0.002633223 0.000986503 0.001221616 
-0.003318812 0.0009002007 0.0004789983 
-0.002662002 0.001099369 0.001326707 
-0.003351784 0.0009189923 0.0004708976 
-0.002712328 0.001227279 0.001429646 
-0.003338404 0.0009130324 0.0004714225 
-0.002737005 0.001276193 0.00146403 
-0.003391477 0.0008797073 0.0004980176 
-0.003389463 0.0009340271 0.0004643373 
-0.002846426 0.001379652 0.001484542 
-0.002930543 0.001394379 0.001424877 
-0.00313342 0.001232686 0.001052107 
-0.003276685 0.00109708 0.0007640274 
-0.003405861 0.0009605217 0.0004492585 
-0.002850408 0.0007687471 0.0007789246 
-0.002661827 0.0007499362 0.0009292208 
-0.002980844 0.0007952682 0.0006901454 
-0.002652499 0.0007581657 0.0009473172 
-0.002681401 0.0007466235 0.0009074925 
-0.002640859 0.0007639369 0.0009646629 
-0.002631208 0.0007950824 0.001009726 
-0.002629332 0.0008044878 0.001022387 
-0.002631993 0.0007837958 0.0009958722 
-0.002628546 0.0008157743 0.001036241 
-0.002625841 0.0008458718 0.001073743 
-0.002625797 0.0008552774 0.00108473 
-0.002626627 0.0008345854 0.001059888 
-0.002625011 0.0008665638 0.001098584 
-0.002487394 0.001066541 0.0009688333 
-0.002627015 0.0009079479 0.001144923 
-0.002626971 0.0009173534 0.00115591 
-0.002631897 0.0009606186 0.001201771 
-0.002634775 0.000971905 0.001212279 
-0.002641578 0.001005763 0.00124548 
-0.002631722 0.0009515043 0.001190542 
-0.002642623 0.001017052 0.001257661 
-0.002654153 0.001062174 0.001299719 
-0.002672187 0.00111863 0.001348898 
-0.002658933 0.001073367 0.001308635 
-0.002677987 0.001131798 0.001358928 
-0.002669309 0.001107344 0.001338388 
-0.002898605 0.0008578259 0.001613595 
-0.002700796 0.001190106 0.00140598 
-0.002722553 0.001237139 0.001440845 
-0.002727263 0.001248426 0.001449681 
-0.002714921 0.001223974 0.001432486 
-0.002734894 0.001261593 0.001458039 
-0.002759462 0.001310648 0.001492302 
-0.002753778 0.001297334 0.001482398 
-0.002803711 0.001351886 0.001500298 
-0.002819063 0.00135941 0.001495039 
-0.002789101 0.00134248 0.001502691 
-0.002833672 0.001368816 0.001492646 
-0.002876456 0.001385745 0.001473286 
-0.003024744 0.00132555 0.001267823 
-0.002892687 0.001389144 0.001462421 
-0.002862195 0.001380102 0.00147974 
-0.00291365 0.001392991 0.001447758 
-0.002709143 0.000742776 0.0008776832 
-0.00263387 0.0007743904 0.0009832116 
-0.003283785 0.0008701089 0.0005031954 
-0.003128918 0.0008289421 0.0005946829 
-0.003268081 0.0008621082 0.0005079432 
-0.002626671 0.0008251799 0.001048901 
-0.003309728 0.0008842312 0.0004938468 
-0.002624967 0.0008759692 0.001109572 
-0.002629065 0.0009399238 0.001180277 
-0.003330668 0.0008850928 0.0004919789 
-0.002635821 0.0009831917 0.001224461 
-0.002664602 0.001096053 0.001329556 
-0.003352734 0.000894918 0.000486997 
-0.003363867 0.0009037514 0.000484042 
-0.003375287 0.0009105201 0.0004782439 
-0.002739604 0.00127288 0.001466876 
-0.003386477 0.0009190454 0.0004755968 
-0.002766014 0.00132195 0.001499477 
-0.00327821 0.00109512 0.0007658578 
-0.003430089 0.0009296526 0.0004758208 
-0.002849024 0.00137634 0.001487387 
-0.002933141 0.001391067 0.001427722 
-0.003135552 0.001229971 0.001054423 
0.0002545397 0.002247407 -2.540014e-06 
0.0003256885 0.002315754 -2.540012e-06 
0.0003166394 0.0023429 -2.540011e-06 
0.0003066295 0.00236895 -2.54001e-06 
0.0002514421 0.002472283 3.334051e-05 
0.0002843051 0.00242104 -2.540008e-06 
0.0002346959 0.002500415 -2.540005e-06 
0.0001720427 0.002594171 0.0001053134 
0.0001032309 0.002711255 -2.539998e-06 
0.0001214313 0.002662191 0.0002165814 
9.083436e-05 0.002733582 -2.688614e-06 
-7.291766e-05 0.003001511 -2.286155e-06 
4.866079e-05 0.002800552 -2.539995e-06 
3.873877e-05 0.002820395 -2.539994e-06 
6.354362e-05 0.002778227 -2.539996e-06 
2.385612e-05 0.002842719 -2.539994e-06 
-6.296085e-05 0.002984107 -2.54195e-06 
-8.528464e-05 0.003021313 -2.539987e-06 
-9.520663e-05 0.003038677 -2.539987e-06 
-0.0001445797 0.003108414 0.0002302192 
-0.0001793914 0.003177391 -4.13493e-06 
-0.0001894642 0.003192465 -2.539982e-06 
-0.0001696205 0.003160219 -2.539983e-06 
-0.0001993862 0.003209829 -2.539981e-06 
-0.0002465152 0.003234633 -2.53998e-06 
-0.0002185082 0.003228235 -0.0001769775 
-0.0005416909 0.00310813 -2.539985e-06 
-0.0003143187 0.003240408 -2.53998e-06 
-0.0002877808 0.003239728 -2.545344e-06 
0.0003264732 0.002289575 -2.540012e-06 
0.0003106068 0.002267493 -2.540013e-06 
0.000299188 0.002396235 -2.540009e-06 
0.0001725126 0.002231527 -5.559381e-06 
4.039377e-06 0.002200132 -3.265387e-06 
0.000204931 0.002550023 -2.540015e-06 
-0.0002641958 0.002216769 1.253733e-05 
7.594592e-05 0.002755903 -2.539997e-06 
-0.0003934846 0.002222651 -2.297154e-05 
1.145881e-05 0.002865046 -2.667843e-06 
-0.0004920813 0.002230044 -2.570342e-05 
-0.0005868112 0.002234956 -3.13139e-05 
-0.0001076089 0.003058521 -2.539986e-06 
-0.0006253711 0.002237905 -2.957862e-05 
-0.0001596977 0.003145335 -2.539931e-06 
-0.0002088516 0.003219315 -2.539981e-06 
-0.0007597205 0.002248214 -2.302839e-05 
-0.0008790753 0.002257365 -1.514177e-05 
-0.0002713185 0.003239594 -2.539393e-06 
-0.0009538371 0.002276298 -7.315965e-06 
-0.0003578662 0.003238367 -2.53998e-06 
-0.0003367728 0.003239728 -2.53998e-06 
-0.0003754995 0.003232153 -2.53998e-06 
-0.0007550113 0.002837759 -2.539994e-06 
-0.000928605 0.00255998 -2.089167e-06 
-0.001043846 0.002300301 -2.540012e-06 
0.0002545397 0.002247407 2.539986e-06 
0.0003256885 0.002315754 2.539988e-06 
0.0003166394 0.0023429 2.539989e-06 
0.0003066295 0.00236895 2.53999e-06 
0.000251442 0.002472283 -3.334601e-05 
0.0002843051 0.00242104 2.539992e-06 
0.0002049301 0.002550024 2.539996e-06 
0.00012143 0.002662191 -0.0002166118 
0.0001032309 0.002711255 2.540002e-06 
9.083327e-05 0.002733584 2.68862e-06 
4.866079e-05 0.002800552 2.540005e-06 
3.873877e-05 0.002820395 2.540006e-06 
6.354362e-05 0.002778227 2.540004e-06 
2.385612e-05 0.002842719 2.540006e-06 
-7.291619e-05 0.003001509 2.286212e-06 
-8.528464e-05 0.003021313 2.540012e-06 
-6.296756e-05 0.002984107 2.387463e-06 
-9.520663e-05 0.003038677 2.540013e-06 
-0.0006257321 0.002237933 2.957834e-05 
-0.0001445797 0.003108414 -0.0002302186 
-0.0001793923 0.003177392 4.134914e-06 
-0.0001894642 0.003192465 2.540018e-06 
-0.0001696205 0.003160219 2.540017e-06 
-0.0001993862 0.003209829 2.540019e-06 
-0.0002185082 0.003228234 0.0001769545 
-0.0002877808 0.003239728 2.545382e-06 
-0.0002465152 0.003234633 2.54002e-06 
-0.0003143187 0.003240408 2.54002e-06 
-0.0005416909 0.00310813 2.540015e-06 
0.0003264732 0.002289575 2.539987e-06 
0.0003106068 0.002267493 2.539987e-06 
0.000299188 0.002396235 2.539991e-06 
0.0001725126 0.002231527 5.559382e-06 
4.038326e-06 0.002200132 3.262877e-06 
0.0002346937 0.002500418 2.540016e-06 
-0.0002641988 0.002216768 -1.253433e-05 
0.0001720409 0.002594174 -0.0001053078 
-0.0003934648 0.00222265 2.297078e-05 
7.594592e-05 0.002755903 2.540003e-06 
-0.0005867936 0.002234955 3.131351e-05 
1.145352e-05 0.002865044 2.540007e-06 
-0.0004920813 0.002230044 2.570339e-05 
-0.0001076089 0.003058521 2.540014e-06 
-0.0001596968 0.003145334 2.540047e-06 
-0.0007588439 0.002248146 2.305614e-05 
-0.0002088516 0.003219315 2.540019e-06 
-0.0008790779 0.002257366 1.514156e-05 
-0.0002713176 0.003239594 2.539824e-06 
-0.0009538371 0.002276298 7.315939e-06 
-0.0003578662 0.003238367 2.54002e-06 
-0.0003754995 0.003232153 2.54002e-06 
-0.0003367728 0.003239728 2.54002e-06 
-0.0007550113 0.002837759 2.540006e-06 
-0.000928605 0.00255998 2.089155e-06 
-0.001043846 0.002300301 2.539988e-06 
-0.004186192 0.001403332 1.874795e-06 
-0.004100357 0.0009723532 -9.868106e-11 
-0.004749536 0.001563265 -5.185949e-06 
-0.005138454 0.00157905 -8.522527e-05 
-0.003504332 0.0008702973 -0.0004410032 
-0.003617473 0.001089029 -0.0005432227 
-0.00314277 0.001285955 -0.0007070471 
-0.003619952 0.001277544 -0.0005804296 
-0.003676977 0.001537964 -0.0005034069 
-0.004200617 0.0008791909 -0.0002223666 
-0.003907688 0.001704185 -0.0003621484 
-0.00423511 0.0009918623 -2.868821e-11 
0.004069939 0.001128104 3.862305e-07 
0.004006996 0.002036467 -7.282922e-06 
0.003348984 0.001128647 -2.189755e-05 
0.003514794 0.001784649 -9.265068e-05 
0.003188298 0.001354622 -0.0002130546 
0.001713717 0.001129541 -0.0005061636 
0.00235959 0.002062071 -7.805952e-05 
0.001581047 0.0008129354 -0.0003081574 
0.002058137 0.001844525 -0.0003847665 
0.001676119 0.0007577644 -2.016192e-05 
6.894403e-05 0.001729549 -0.0006442924 
0.001550498 0.001411333 -0.0005530573 
0.0005703786 0.002162041 -0.0002892225 
-0.0002106024 0.0007841024 -0.0006121771 
-0.0001361121 0.001147038 -0.0007522656 
0.0001579709 0.001440063 -0.0006942133 
-0.0009742111 0.002303328 6.525457e-06 
-0.001129361 0.0004959175 -6.606607e-05 
-0.001370562 0.001005683 -0.000758009 
-0.0008090474 0.002227674 -0.0002920994 
-0.002148228 0.0007608951 -0.0005617022 
-0.00245239 0.001689499 -0.0006618473 
-0.003228139 0.0006205746 -5.092044e-05 
-0.002173895 0.001326618 -0.000766981 
-0.002557797 0.002160698 -0.0003142137 
-0.003331914 0.001123769 -0.0006425088 
-0.003293437 0.001211896 -0.0006813956 
-0.003280758 0.001298532 -0.0006982735 
-0.003359069 0.001432025 -0.000652218 
-0.003522215 0.001585994 -0.0004757059 
-0.003601267 0.000855323 -0.0004715294 
-0.003725341 0.001083419 -0.0006169631 
-0.003669818 0.001756798 -0.000432602 
-0.003702315 0.001781078 -0.0004111312 
-0.004099357 0.002029375 -5.762507e-06 
-0.004030304 0.0008897693 -9.438094e-05 
-0.003928354 0.0008805194 -0.000203165 
-0.0041039 0.000890751 -1.458464e-13 
-0.004788071 0.001315392 -0.00040293 
-0.004322981 0.001450144 -0.0004875394 
-0.004667338 0.001697257 -0.0003267739 
-0.004550922 0.001150866 -0.0004469444 
-0.003938405 0.001951419 -0.0002345104 
-0.004568443 0.001009698 -0.000340534 
-0.004641818 0.001154781 0.00041573 
-0.005088662 0.00141604 -8.765434e-05 
-0.003452072 0.0008515517 0.0004358884 
-0.0036868 0.001549299 0.0005521087 
-0.003619952 0.001277544 0.0005804296 
-0.00370232 0.001781082 0.0004111272 
-0.003907688 0.001704185 0.0003621484 
-0.004160695 0.001007132 0.0001590738 
0.003462292 0.001808669 0.0001066717 
0.003200901 0.001384566 0.0002041782 
0.001585899 0.002126991 0.0002022589 
0.002502374 0.001016609 -2.033617e-05 
0.00157061 0.00148867 0.0005418958 
0.00161259 0.0008578717 0.0003706139 
0.001346415 0.001013026 0.0005400178 
0.0002511959 0.001838415 0.0005798449 
0.002060721 0.001891666 0.0003492943 
0.0001579709 0.001440063 0.0006942133 
4.909302e-05 0.002172992 0.0003288702 
-0.0002987192 0.0006972597 0.0005171592 
-0.0001361121 0.001147038 0.0007522656 
-0.001979116 0.00183965 0.0005953137 
-0.001265577 0.0009587103 0.0007393417 
-0.001508571 0.001401628 0.0007575392 
-0.002305193 0.002259896 7.608812e-05 
-0.00169063 0.0006585186 0.000492423 
-0.003183197 0.001192025 0.0007208391 
-0.003614078 0.001105061 0.0005238291 
-0.002992104 0.002114429 0.0003094669 
-0.003332749 0.001119789 0.0006459999 
-0.003276052 0.00128998 0.0006186732 
-0.003359069 0.001432025 0.0006522181 
-0.003522214 0.001585992 0.000475708 
-0.004042578 0.0009774201 0.0005231114 
-0.003604098 0.0008843846 0.00045464 
-0.003904245 0.0009991172 0.0003663704 
-0.003943305 0.0007511586 0.0002318488 
-0.003669819 0.001756798 0.0004326015 
-0.003935911 0.001948163 0.0002281727 
-0.004254004 0.001262435 0.0005679276 
-0.004438503 0.00173544 0.0003341413 
-0.004933742 0.001457882 0.0003069387 
-0.004741365 0.001795051 0.000160757 
3 0 2 1 
3 0 3 2 
3 0 4 3 
3 0 5 4 
3 0 6 5 
3 0 7 6 
3 8 9 10 
3 8 10 11 
3 8 11 12 
3 8 12 13 
3 8 13 14 
3 8 14 15 
3 16 18 17 
3 16 19 18 
3 16 73 20 
3 16 20 21 
3 73 22 20 
3 73 75 23 
3 75 24 23 
3 73 23 25 
3 75 26 24 
3 75 27 28 
3 75 29 27 
3 75 33 30 
3 75 30 29 
3 33 74 30 
3 33 31 32 
3 33 34 35 
3 33 36 34 
3 33 38 37 
3 33 37 39 
3 33 40 38 
3 33 41 42 
3 33 42 81 
3 41 43 44 
3 41 45 43 
3 41 46 47 
3 41 48 46 
3 41 49 50 
3 41 51 49 
3 41 52 53 
3 41 54 52 
3 41 55 56 
3 41 57 55 
3 41 59 58 
3 59 60 61 
3 59 61 62 
3 16 17 63 
3 16 63 64 
3 66 69 67 
3 16 21 19 
3 73 68 22 
3 73 16 65 
3 65 69 73 
3 70 69 66 
3 73 25 68 
3 75 71 26 
3 69 72 73 
3 72 69 70 
3 75 28 71 
3 33 32 74 
3 85 33 75 
3 33 35 76 
3 75 78 85 
3 78 75 77 
3 33 39 36 
3 33 79 40 
3 80 85 78 
3 33 81 79 
3 41 82 42 
3 33 85 41 
3 83 86 85 
3 41 44 82 
3 41 84 45 
3 41 47 84 
3 41 87 48 
3 88 85 86 
3 41 50 87 
3 41 89 51 
3 90 85 88 
3 41 53 89 
3 91 41 85 
3 91 85 90 
3 41 92 57 
3 91 93 99 
3 41 58 92 
3 41 98 59 
3 98 41 91 
3 91 99 98 
3 100 99 93 
3 59 62 94 
3 60 95 96 
3 60 97 95 
3 60 96 61 
3 59 98 60 
3 101 102 105 
3 105 102 103 
3 105 103 104 
3 108 105 106 
3 108 106 107 
3 117 108 109 
3 117 109 111 
3 117 113 112 
3 117 112 114 
3 117 114 115 
3 117 116 118 
3 117 119 122 
3 117 120 119 
3 122 119 163 
3 122 121 123 
3 122 124 121 
3 122 123 125 
3 122 166 168 
3 122 168 126 
3 122 127 169 
3 169 127 128 
3 169 128 129 
3 169 130 131 
3 169 132 130 
3 169 131 133 
3 169 134 173 
3 173 134 135 
3 169 136 134 
3 173 135 137 
3 173 138 139 
3 173 139 140 
3 173 142 180 
3 180 141 143 
3 180 145 144 
3 144 147 148 
3 144 149 147 
3 101 150 151 
3 101 151 102 
3 101 105 152 
3 154 155 153 
3 108 107 156 
3 108 152 105 
3 152 108 153 
3 157 154 153 
3 108 156 110 
3 117 111 158 
3 159 153 108 
3 153 159 157 
3 117 158 113 
3 161 108 117 
3 161 159 108 
3 117 115 160 
3 164 161 117 
3 162 159 161 
3 117 118 120 
3 122 164 117 
3 165 161 164 
3 122 163 124 
3 122 125 166 
3 167 165 164 
3 169 164 122 
3 169 129 170 
3 169 170 132 
3 169 133 172 
3 173 171 169 
3 169 172 136 
3 173 137 174 
3 173 174 138 
3 173 140 176 
3 173 176 142 
3 180 143 177 
3 173 180 178 
3 178 175 173 
3 180 177 145 
3 144 146 179 
3 181 178 180 
3 144 179 149 
3 148 182 183 
3 148 184 182 
3 148 147 184 
3 144 148 185 
3 185 180 144 
3 180 185 186 
3 186 181 180 
3 181 186 187 
3 188 222 189 
3 222 190 189 
3 222 191 190 
3 222 192 193 
3 222 194 192 
3 222 195 196 
3 222 197 195 
3 222 200 199 
3 222 199 201 
3 222 224 200 
3 222 203 202 
3 222 202 204 
3 222 205 203 
3 222 229 207 
3 229 206 207 
3 229 228 206 
3 229 211 209 
3 211 208 209 
3 211 210 208 
3 188 189 213 
3 188 213 214 
3 222 215 191 
3 188 216 222 
3 222 193 215 
3 222 219 194 
3 223 222 216 
3 223 216 217 
3 217 220 223 
3 220 217 218 
3 222 196 219 
3 222 221 197 
3 222 198 221 
3 223 225 222 
3 222 204 224 
3 222 226 205 
3 222 227 229 
3 227 222 225 
3 222 207 226 
3 229 209 228 
3 211 230 210 
3 229 231 211 
3 211 212 230 
3 211 232 233 
3 211 233 212 
3 211 234 232 
3 231 235 211 
3 236 237 243 
3 243 237 238 
3 243 238 239 
3 243 240 241 
3 243 241 242 
3 251 243 244 
3 251 244 246 
3 251 247 271 
3 251 249 248 
3 251 248 272 
3 251 250 252 
3 251 253 250 
3 251 252 254 
3 251 255 274 
3 274 255 256 
3 274 256 275 
3 274 257 281 
3 281 257 258 
3 281 258 259 
3 236 261 262 
3 236 262 237 
3 243 239 263 
3 236 243 264 
3 243 263 240 
3 243 242 267 
3 268 264 243 
3 268 265 264 
3 265 268 269 
3 269 266 265 
3 243 267 245 
3 251 246 270 
3 251 268 243 
3 251 270 247 
3 251 271 249 
3 251 272 253 
3 251 254 273 
3 251 273 255 
3 274 275 257 
3 281 259 277 
3 274 283 276 
3 281 277 260 
3 281 260 278 
3 281 278 279 
3 281 279 280 
3 274 281 282 
3 282 283 274 
3 284 285 289 
3 289 285 286 
3 284 287 285 
3 289 286 288 
3 289 291 290 
3 289 290 292 
3 289 293 318 
3 289 317 293 
3 318 293 319 
3 318 294 295 
3 318 296 294 
3 318 295 297 
3 318 298 321 
3 321 298 299 
3 318 320 298 
3 321 299 300 
3 321 302 301 
3 321 301 323 
3 321 303 327 
3 327 303 304 
3 327 304 305 
3 327 306 307 
3 307 306 308 
3 327 309 306 
3 307 308 310 
3 284 311 287 
3 289 288 312 
3 313 314 289 
3 314 313 315 
3 315 316 314 
3 289 312 291 
3 289 292 317 
3 318 313 289 
3 318 319 296 
3 318 297 320 
3 321 300 322 
3 321 322 302 
3 321 324 325 
3 321 323 303 
3 327 305 326 
3 321 327 324 
3 328 325 324 
3 327 326 309 
3 307 310 329 
3 330 359 331 
3 359 332 331 
3 330 331 333 
3 359 334 332 
3 359 335 336 
3 359 337 335 
3 359 367 338 
3 359 338 363 
3 367 365 338 
3 367 340 339 
3 367 339 341 
3 367 342 340 
3 367 343 344 
3 343 345 344 
3 367 344 366 
3 343 346 345 
3 343 347 348 
3 343 349 347 
3 343 374 369 
3 374 350 369 
3 374 351 350 
3 374 352 353 
3 352 354 353 
3 374 353 355 
3 352 356 354 
3 330 333 357 
3 359 358 334 
3 364 359 360 
3 360 361 364 
3 361 360 362 
3 359 336 358 
3 359 363 337 
3 367 359 364 
3 367 341 365 
3 367 366 342 
3 343 368 346 
3 343 348 368 
3 343 369 349 
3 343 370 375 
3 374 371 351 
3 343 375 374 
3 372 375 370 
3 374 355 371 
3 352 373 356 
3 376 405 377 
3 405 378 377 
3 376 377 379 
3 405 380 378 
3 405 381 382 
3 405 383 381 
3 405 413 384 
3 405 384 409 
3 413 411 384 
3 413 386 385 
3 413 385 387 
3 413 388 386 
3 413 389 390 
3 389 391 390 
3 413 390 412 
3 389 392 391 
3 389 393 394 
3 389 415 393 
3 389 420 396 
3 420 395 396 
3 420 397 395 
3 420 398 399 
3 398 400 399 
3 420 399 401 
3 398 402 400 
3 376 379 403 
3 405 404 380 
3 410 405 406 
3 406 407 410 
3 407 406 408 
3 405 382 404 
3 405 409 383 
3 413 405 410 
3 413 387 411 
3 413 412 388 
3 389 414 392 
3 389 394 414 
3 389 416 421 
3 389 396 415 
3 420 417 397 
3 389 421 420 
3 418 421 416 
3 420 401 417 
3 398 419 402 
3 422 423 451 
3 451 423 424 
3 422 425 423 
3 451 424 426 
3 451 428 427 
3 451 427 429 
3 451 430 457 
3 457 430 459 
3 457 431 432 
3 457 433 431 
3 457 432 460 
3 457 434 463 
3 463 434 435 
3 457 436 434 
3 463 435 437 
3 463 439 438 
3 463 438 462 
3 463 442 440 
3 440 441 443 
3 440 444 445 
3 445 444 446 
3 440 447 444 
3 445 446 448 
3 422 449 425 
3 451 426 450 
3 452 453 451 
3 453 452 454 
3 454 455 453 
3 451 450 428 
3 451 429 456 
3 451 457 458 
3 458 452 451 
3 451 456 430 
3 457 459 433 
3 457 460 436 
3 463 437 461 
3 463 461 439 
3 463 462 442 
3 440 443 464 
3 463 440 465 
3 463 465 466 
3 440 464 447 
3 445 448 467 
3 440 445 465 
3 468 466 465 
3 469 473 470 
3 473 469 471 
3 473 471 472 
3 470 475 474 
3 475 470 473 
3 474 476 477 
3 476 474 475 
3 475 478 476 
3 479 483 481 
3 481 480 479 
3 481 482 480 
3 483 484 485 
3 485 481 483 
3 484 486 487 
3 487 485 484 
3 485 487 488 
3 489 490 491 
3 491 490 492 
3 489 493 490 
3 491 492 494 
3 491 495 543 
3 543 495 496 
3 491 497 495 
3 543 496 498 
3 543 500 499 
3 543 499 501 
3 543 502 503 
3 543 503 504 
3 543 505 546 
3 546 505 506 
3 543 542 505 
3 546 506 507 
3 546 508 509 
3 546 510 508 
3 546 509 511 
3 546 511 512 
3 546 513 514 
3 546 515 513 
3 546 514 516 
3 546 516 517 
3 517 518 546 
3 546 518 519 
3 517 520 518 
3 546 519 521 
3 546 522 523 
3 546 548 522 
3 546 523 549 
3 546 524 529 
3 529 524 525 
3 546 526 524 
3 529 525 527 
3 529 528 530 
3 529 531 528 
3 529 530 532 
3 489 533 493 
3 491 494 534 
3 535 536 491 
3 536 535 537 
3 491 534 497 
3 543 498 538 
3 491 543 539 
3 539 535 491 
3 543 538 500 
3 543 501 540 
3 541 539 543 
3 543 540 502 
3 543 504 542 
3 544 539 541 
3 546 507 510 
3 546 512 545 
3 546 545 515 
3 547 543 546 
3 546 521 548 
3 546 549 526 
3 529 527 551 
3 546 552 550 
3 529 551 531 
3 529 532 553 
3 554 546 529 
3 546 554 552 
3 555 550 552 
3 556 602 557 
3 602 558 557 
3 556 557 559 
3 602 560 558 
3 602 561 562 
3 561 563 562 
3 602 562 564 
3 561 565 563 
3 571 566 561 
3 571 568 566 
3 571 569 570 
3 571 609 569 
3 571 573 572 
3 571 572 574 
3 571 575 573 
3 571 577 576 
3 571 576 611 
3 571 578 612 
3 578 579 612 
3 578 581 580 
3 578 580 582 
3 578 615 581 
3 578 583 615 
3 578 584 586 
3 584 587 585 
3 584 578 588 
3 578 589 588 
3 584 588 617 
3 578 590 589 
3 578 622 591 
3 622 592 591 
3 578 591 593 
3 622 594 592 
3 622 595 596 
3 595 597 596 
3 622 596 598 
3 595 599 597 
3 556 559 600 
3 602 601 560 
3 606 602 603 
3 603 604 606 
3 602 564 601 
3 561 605 565 
3 602 608 561 
3 608 602 606 
3 561 567 605 
3 571 607 568 
3 613 561 608 
3 571 570 607 
3 610 613 608 
3 571 574 609 
3 571 611 575 
3 571 561 613 
3 571 612 577 
3 578 614 579 
3 578 582 614 
3 578 586 583 
3 584 617 587 
3 618 578 616 
3 578 593 590 
3 622 619 594 
3 620 578 618 
3 622 598 619 
3 595 621 599 
3 578 623 622 
3 623 578 620 
3 620 624 623 
3 625 669 626 
3 669 627 626 
3 625 626 628 
3 669 629 627 
3 669 678 630 
3 678 631 630 
3 669 630 632 
3 678 633 631 
3 678 634 635 
3 678 636 634 
3 678 637 638 
3 678 675 637 
3 678 682 639 
3 682 640 639 
3 678 639 641 
3 682 642 640 
3 682 643 644 
3 682 645 646 
3 645 647 646 
3 645 648 649 
3 645 651 650 
3 651 688 652 
3 688 653 652 
3 651 652 681 
3 688 654 653 
3 688 656 655 
3 688 655 683 
3 688 657 656 
3 688 686 658 
3 686 659 658 
3 688 658 660 
3 686 661 659 
3 686 662 663 
3 662 664 663 
3 686 663 665 
3 662 666 664 
3 625 628 667 
3 669 668 629 
3 673 669 670 
3 670 671 673 
3 669 632 668 
3 678 672 633 
3 669 676 678 
3 676 669 673 
3 678 635 672 
3 678 674 636 
3 678 638 674 
3 678 641 675 
3 682 677 642 
3 682 644 677 
3 682 646 643 
3 645 679 647 
3 645 649 679 
3 645 682 651 
3 684 682 680 
3 688 683 654 
3 688 651 682 
3 682 689 688 
3 682 684 689 
3 685 689 684 
3 688 660 657 
3 690 689 685 
3 662 687 666 
3 686 688 662 
3 691 692 693 
3 693 692 694 
3 691 695 692 
3 693 694 696 
3 693 697 744 
3 744 697 698 
3 693 699 697 
3 744 698 700 
3 744 701 702 
3 744 703 701 
3 744 702 704 
3 744 705 706 
3 744 706 707 
3 744 743 711 
3 711 708 709 
3 711 710 712 
3 711 713 715 
3 715 714 716 
3 715 717 714 
3 715 716 718 
3 715 718 719 
3 719 720 757 
3 757 720 721 
3 719 722 720 
3 757 721 723 
3 757 725 724 
3 724 728 726 
3 726 727 729 
3 726 730 731 
3 731 730 732 
3 726 733 730 
3 731 732 734 
3 691 735 695 
3 693 696 736 
3 737 738 693 
3 738 737 739 
3 693 736 699 
3 744 700 740 
3 693 744 741 
3 741 737 693 
3 744 740 703 
3 744 704 742 
3 744 742 705 
3 744 707 743 
3 711 709 745 
3 744 711 747 
3 711 745 710 
3 711 712 713 
3 711 715 747 
3 715 746 717 
3 715 719 747 
3 757 723 750 
3 719 757 747 
3 751 748 747 
3 751 749 748 
3 757 750 725 
3 747 757 753 
3 753 751 747 
3 751 753 754 
3 724 752 728 
3 726 729 755 
3 724 726 757 
3 726 755 733 
3 731 734 756 
3 726 731 757 
3 758 795 759 
3 795 760 759 
3 795 761 760 
3 795 762 763 
3 795 764 762 
3 795 765 792 
3 765 768 767 
3 768 766 767 
3 768 769 770 
3 769 771 770 
3 768 770 772 
3 769 773 771 
3 769 774 796 
3 800 775 769 
3 800 776 775 
3 800 801 777 
3 800 778 780 
3 778 781 779 
3 778 786 783 
3 786 782 783 
3 786 805 782 
3 786 784 785 
3 758 759 787 
3 758 787 788 
3 795 789 761 
3 795 758 790 
3 790 791 795 
3 795 763 789 
3 795 792 764 
3 793 795 791 
3 765 798 768 
3 798 765 795 
3 768 772 794 
3 769 796 773 
3 768 798 769 
3 797 798 795 
3 800 769 798 
3 800 799 776 
3 800 777 799 
3 800 780 801 
3 778 802 781 
3 800 803 778 
3 778 783 802 
3 778 803 786 
3 811 803 804 
3 804 806 811 
3 784 807 808 
3 784 809 807 
3 784 808 785 
3 786 810 784 
3 810 786 803 
3 803 811 810 
3 812 811 806 
3 813 814 850 
3 850 814 815 
3 850 815 816 
3 850 818 817 
3 850 817 847 
3 850 819 849 
3 849 820 822 
3 822 820 821 
3 822 823 827 
3 827 823 824 
3 822 825 823 
3 827 824 826 
3 831 827 828 
3 831 828 830 
3 831 832 856 
3 831 835 833 
3 833 834 836 
3 833 837 838 
3 838 837 839 
3 838 839 860 
3 838 840 841 
3 813 842 814 
3 813 843 842 
3 850 816 844 
3 850 845 813 
3 845 850 846 
3 850 844 818 
3 848 846 850 
3 850 847 819 
3 849 822 852 
3 852 850 849 
3 822 851 825 
3 827 826 853 
3 822 827 852 
3 854 850 852 
3 827 853 829 
3 831 852 827 
3 831 830 855 
3 831 855 832 
3 831 856 835 
3 833 836 858 
3 831 833 857 
3 833 858 837 
3 833 838 857 
3 866 859 857 
3 859 866 861 
3 841 862 863 
3 841 840 864 
3 841 864 862 
3 838 841 865 
3 865 857 838 
3 857 865 866 
3 867 861 866 
3 921 925 869 
3 918 921 868 
3 921 869 868 
3 868 870 918 
3 870 871 918 
3 874 873 875 
3 873 874 872 
3 876 874 875 
3 877 873 872 
3 876 878 913 
3 922 913 878 
3 879 877 902 
3 881 880 883 
3 884 883 880 
3 880 882 884 
3 883 886 881 
3 886 883 888 
3 935 884 882 
3 884 885 891 
3 884 935 885 
3 884 888 883 
3 887 885 935 
3 884 891 888 
3 889 887 935 
3 890 888 891 
3 888 892 886 
3 891 885 894 
3 892 888 890 
3 934 886 892 
3 893 885 887 
3 893 894 885 
3 891 894 895 
3 890 891 895 
3 899 896 892 
3 892 896 934 
3 897 893 887 
3 898 894 893 
3 890 899 892 
3 895 894 903 
3 890 895 903 
3 904 890 901 
3 890 904 899 
3 900 898 893 
3 903 901 890 
3 899 948 896 
3 893 897 900 
3 898 903 894 
3 897 902 900 
3 948 899 904 
3 872 900 902 
3 898 900 874 
3 874 903 898 
3 904 914 948 
3 900 872 874 
3 903 874 901 
3 913 874 876 
3 874 913 901 
3 914 904 922 
3 908 919 909 
3 904 901 913 
3 905 910 911 
3 911 906 905 
3 911 907 906 
3 907 919 908 
3 919 912 909 
3 922 904 913 
3 902 877 872 
3 911 923 921 
3 923 911 910 
3 910 916 923 
3 907 921 918 
3 921 907 911 
3 919 907 918 
3 913 912 920 
3 915 917 923 
3 923 916 915 
3 920 912 919 
3 920 922 913 
3 920 919 918 
3 871 922 920 
3 914 922 871 
3 921 923 925 
3 918 871 920 
3 923 924 925 
3 914 871 966 
3 965 868 924 
3 924 868 869 
3 924 869 925 
3 965 870 868 
3 870 965 871 
3 927 928 951 
3 959 926 951 
3 927 929 930 
3 962 930 929 
3 959 931 902 
3 879 902 931 
3 880 881 933 
3 933 881 932 
3 882 880 933 
3 932 881 886 
3 886 934 932 
3 882 933 935 
3 940 932 934 
3 940 936 932 
3 932 936 933 
3 933 938 935 
3 889 935 937 
3 935 938 937 
3 938 933 936 
3 936 940 939 
3 936 944 938 
3 939 940 942 
3 934 942 940 
3 936 941 944 
3 939 941 936 
3 937 943 889 
3 897 887 889 
3 938 946 943 
3 943 937 938 
3 946 938 944 
3 939 947 941 
3 896 942 934 
3 941 947 944 
3 947 939 945 
3 897 889 943 
3 943 949 897 
3 942 945 939 
3 949 943 946 
3 942 896 948 
3 945 942 952 
3 948 952 942 
3 944 950 946 
3 950 944 947 
3 902 897 949 
3 947 945 927 
3 927 950 947 
3 902 949 926 
3 946 950 949 
3 949 950 926 
3 927 945 952 
3 952 948 914 
3 950 927 951 
3 926 950 951 
3 955 956 963 
3 927 952 929 
3 962 952 914 
3 953 957 958 
3 957 953 954 
3 954 955 963 
3 963 956 961 
3 962 929 952 
3 959 902 926 
3 963 957 954 
3 958 957 960 
3 929 964 961 
3 964 963 961 
3 962 914 966 
3 960 924 917 
3 924 960 957 
3 962 964 929 
3 923 917 924 
3 963 924 957 
3 964 962 966 
3 965 924 963 
3 963 964 965 
3 966 965 964 
3 965 966 871 
